<svg xmlns="http://www.w3.org/2000/svg" viewBox="0 0 443.04 71.91">
  <defs>
    <style>
      .a {
        fill: #fff;
      }
    </style>
  </defs>
  <title>logo</title>
  <g>
    <path class="a" d="M24,81.12V11.26h4.87V81.12Z" transform="translate(-24.02 -10.16)"/>
    <path class="a" d="M99.47,81.12H94.54l-41.38-62h-.38q.57,11.09.57,16.72v45.3H48.67V11.26h4.87L94.88,73.19h.29q-.43-8.6-.43-16.34V11.26h4.73Z" transform="translate(-24.02 -10.16)"/>
    <path class="a" d="M137.45,81.12h-4.92V15.85h-22.7V11.26h50.32v4.59h-22.7Z" transform="translate(-24.02 -10.16)"/>
    <path class="a" d="M221.89,11.26v45.2q0,12-7,18.83t-19.45,6.79q-12.14,0-18.95-6.81t-6.81-19v-45h4.92v45.2q0,10.08,5.59,15.7T196,77.77q10,0,15.48-5.52T217,56.94V11.26Z" transform="translate(-24.02 -10.16)"/>
    <path class="a" d="M240.9,81.12V11.26h4.87V81.12Z" transform="translate(-24.02 -10.16)"/>
    <path class="a" d="M283.76,81.12h-4.92V15.85h-22.7V11.26h50.31v4.59h-22.7Z" transform="translate(-24.02 -10.16)"/>
    <path class="a" d="M316.83,81.12V11.26h4.87V81.12Z" transform="translate(-24.02 -10.16)"/>
    <path class="a" d="M400.21,46.09q0,16.63-8.31,26.3T369,82.07q-14.57,0-22.89-9.68T337.76,46q0-16.68,8.39-26.26t22.91-9.58q14.62,0,22.89,9.63T400.21,46.09Zm-57.15,0q0,15,6.69,23.2T369,77.49q12.62,0,19.28-8.12t6.67-23.27q0-15.1-6.67-23.15t-19.18-8.05q-12.47,0-19.23,8.12T343.06,46.09Z" transform="translate(-24.02 -10.16)"/>
    <path class="a" d="M467.06,81.12h-4.92l-41.38-62h-.38q.57,11.09.57,16.72v45.3h-4.68V11.26h4.87l41.33,61.93h.29q-.43-8.6-.43-16.34V11.26h4.73Z" transform="translate(-24.02 -10.16)"/>
  </g>
</svg>
